<?xml version="1.0" encoding="utf-8"?>
<svg version="1.1" id="Layer_1" xmlns="http://www.w3.org/2000/svg" xmlns:xlink="http://www.w3.org/1999/xlink" x="0px" y="0px"
	 viewBox="0 0 500 500" style="enable-background:new 0 0 500 500;" xml:space="preserve">
<style type="text/css">
	.st0{fill:#272F5F;}
	.st1{fill:#7DA0D1;}
</style>
<path id="Fill-4" class="st0" d="M432.9,257.6C407.6,359.2,304.8,421,203.3,395.7C101.9,370.3,40.1,267.4,65.5,165.8
	C90.7,64.2,193.5,2.4,295,27.7C396.4,53.1,458.2,156,432.9,257.6z M316.7,235.9c-7.1,1.2-10.6,1.7-17.8,2.1
	c-3.3,0.2-6.6,0.4-9.9,0.6c9.5,6.5,15.5,15.5,12.4,27.9c-5.8,23.2-36.1,20.1-58.5,15.1l-7.5,30.9h0l-0.3,1.4l-9.8,40.2l25.2,6.3
	l10.5-42.1c43.2,8.2,75.7,4.9,89.4-34.3c8.5-24.3,2.3-43.1-10.8-54.7c-0.3,0.1-0.6,0.3-0.8,0.4C332.5,231.9,323.9,234.7,316.7,235.9
	z M309.3,184.8c-7.1,28.7-51.3,14.1-65.6,10.5l12.6-50.7C270.7,148.2,316.7,154.9,309.3,184.8 M318.9,85.2l-25.3-6.3l-10.1,40.6
	c-6.7-1.7-13.5-3.2-20.3-4.8l10.2-40.9L248,67.5l-10.4,41.7c-5.5-1.3-10.9-2.5-16.2-3.8l-34.9-8.9l-6.7,27.1c0,0,18.8,4.3,18.4,4.6
	c10.3,2.6,12.1,9.4,11.8,14.8l-7.6,30.4l-6.6,26.5l-14.3,57.2c-1.3,3.1-4.4,7.8-11.6,6c0.3,0.4-18.4-4.6-18.4-4.6l-12.6,29l33,8.2
	c6.1,1.5,12.1,3.2,18.1,4.7l-10.5,42.2l25.3,6.3l10.4-41.7l8.2-30.5l13.9-55.9c2.9,0.7,5.9,1.4,9.2,2.1c10.2,2.4,21,3.3,31.4,4
	c6.4,0.5,12.9,0.8,19.3,0.7c9.6-0.1,19.4-1.9,28.5-5c7.6-2.5,16.7-5.8,22.3-11.8c6.6-7,9.9-16.4,11.3-25.8
	c4.6-30.8-18.8-47.3-50.8-58.4L318.9,85.2z"/>
<path id="Private" class="st1" d="M289.7,439.7c6.8,0,11.9,1.3,15.3,3.8c3.4,2.6,5.2,6.3,5.2,11.2c0,3.8-0.7,7-2.1,9.8
	s-3.5,5-6.1,6.8c-2.6,1.8-5.8,3.1-9.5,4c-3.7,0.9-7.8,1.3-12.3,1.3h-5.8l-5.2,21.5H261l13.8-57c2.4-0.6,4.8-0.9,7.5-1.1
	C284.9,439.7,287.4,439.7,289.7,439.7z M288.7,446.5c-4,0-6.4,0.1-7.2,0.3l-5.5,22.9h5.3c2.4,0,4.8-0.2,7.2-0.6s4.7-1.2,6.6-2.2
	c2-1.1,3.6-2.5,4.8-4.4c1.3-1.9,1.9-4.3,1.9-7.2c0-3.2-1.2-5.4-3.5-6.8C295.9,447.2,292.7,446.5,288.7,446.5z M331.6,453.8
	c0.7,0,1.4,0,2.3,0.1c0.8,0.1,1.7,0.2,2.5,0.3c0.8,0.1,1.6,0.3,2.2,0.4s1.2,0.3,1.5,0.5l-2.3,6.8c-1.1-0.4-2.4-0.8-3.9-1
	c-1.5-0.2-2.9-0.3-4.2-0.3c-1.2,0-2.3,0.1-3.5,0.3s-2.1,0.4-3,0.7l-8.9,36.7h-7.8l10.1-41.7c2.2-0.8,4.6-1.4,7.2-1.9
	C326.5,454,329,453.8,331.6,453.8z M342.1,498h-7.8l10.5-43.4h7.8L342.1,498z M351.2,446.8c-1.3,0-2.4-0.4-3.2-1.2
	c-0.9-0.8-1.3-1.9-1.3-3.3c0-1.8,0.6-3.2,1.7-4.2c1.1-1,2.4-1.5,3.8-1.5c1.3,0,2.4,0.4,3.3,1.2s1.3,1.9,1.3,3.4c0,1.7-0.6,3-1.8,4
	C353.8,446.3,352.6,446.8,351.2,446.8z M361.6,498c-0.7-2.8-1.3-5.9-1.9-9.3c-0.6-3.4-1.2-6.9-1.7-10.6c-0.5-3.7-0.9-7.5-1.3-11.5
	c-0.3-3.9-0.6-7.9-0.7-11.9h7.9c0.1,2.7,0.2,5.6,0.4,8.7c0.2,3.1,0.4,6.2,0.7,9.3c0.3,3.1,0.6,6.1,1,8.9c0.4,2.9,0.8,5.5,1.3,7.8
	c1.7-2.1,3.4-4.6,5.2-7.5c1.8-2.9,3.6-5.9,5.2-9s3.2-6.3,4.6-9.5c1.4-3.2,2.5-6.1,3.4-8.8h7.9c-1.2,3.7-2.8,7.5-4.7,11.4
	c-1.9,3.9-4,7.8-6.2,11.6c-2.2,3.8-4.5,7.5-7,11c-2.4,3.5-4.8,6.6-7.1,9.3H361.6z M418.5,498.5c-0.3-0.6-0.6-1.3-0.8-2
	c-0.3-0.8-0.5-1.5-0.7-2.4c-1.2,1.1-2.9,2.2-5,3.3c-2.1,1.1-4.6,1.7-7.6,1.7c-2.5,0-4.6-0.4-6.3-1.2c-1.8-0.8-3.2-1.9-4.3-3.3
	c-1.1-1.4-1.9-3-2.5-4.9s-0.8-4-0.8-6.3c0-3.7,0.6-7.4,1.9-10.9c1.3-3.6,3.1-6.7,5.7-9.5c2.5-2.8,5.7-5,9.5-6.8
	c3.8-1.7,8.3-2.6,13.3-2.6c1.5,0,3.3,0.2,5.3,0.5c2,0.3,3.7,0.9,5.2,1.7l-6.5,26.2c-0.3,1.3-0.5,2.5-0.7,3.7
	c-0.2,1.2-0.3,2.4-0.3,3.7c0,1.3,0.1,2.6,0.3,3.9s0.6,2.7,1.2,4.2L418.5,498.5z M406,492.5c2.4,0,4.4-0.5,6-1.5
	c1.7-1,3.1-2.2,4.4-3.5c0.1-0.9,0.2-1.9,0.3-3c0.1-1,0.3-2.1,0.5-3.1l5-20.7c-0.3-0.1-0.7-0.2-1.4-0.3s-1.2-0.1-1.7-0.1
	c-3.2,0-6.1,0.6-8.6,1.8s-4.8,2.8-6.6,4.9c-1.8,2-3.2,4.4-4.2,7.1c-1,2.7-1.5,5.5-1.5,8.5c0,1.2,0.1,2.3,0.3,3.5
	c0.2,1.2,0.6,2.3,1.2,3.2c0.6,0.9,1.4,1.7,2.4,2.3C403.2,492.2,404.4,492.5,406,492.5z M445.7,499.2c-4.2,0-7.3-0.9-9.2-2.8
	c-2-1.8-2.9-4.5-2.9-8c0-2.3,0.4-5.2,1.2-8.8l9-37.1l8.1-1.3l-3.3,13.4h14.9l-1.6,6.5H447l-4.6,19.2c-0.7,2.6-1,4.9-1,6.8
	c0,1.8,0.5,3.2,1.5,4c1,0.8,2.7,1.2,5,1.2c1.6,0,3.2-0.3,4.8-0.8s2.8-1,3.6-1.5l0.6,6.6c-0.8,0.5-2.3,1-4.3,1.6
	C450.6,498.9,448.3,499.2,445.7,499.2z M470.3,475.3c3.2-0.1,6.2-0.3,8.9-0.6c2.7-0.3,5-0.8,7-1.6c2-0.8,3.5-1.8,4.6-3
	c1.1-1.3,1.6-2.9,1.6-5c0-0.5-0.1-1-0.3-1.6c-0.2-0.6-0.5-1.1-1-1.5c-0.5-0.5-1.1-0.9-2-1.2s-1.9-0.5-3.1-0.5c-2,0-3.8,0.4-5.5,1.3
	c-1.7,0.8-3.2,1.9-4.6,3.3c-1.3,1.4-2.5,2.9-3.4,4.8C471.5,471.4,470.8,473.3,470.3,475.3z M478.3,499.1c-2.9,0-5.3-0.4-7.4-1.2
	c-2.1-0.8-3.8-1.9-5.2-3.3c-1.4-1.4-2.4-3.1-3.1-5s-1-3.9-1-6c0-3.9,0.6-7.6,1.8-11.3c1.2-3.6,2.9-6.8,5-9.6c2.2-2.8,4.8-5,8-6.6
	c3.1-1.6,6.7-2.5,10.7-2.5c2.3,0,4.3,0.3,5.9,0.9s3,1.4,4,2.4c1,1,1.8,2.2,2.3,3.5c0.5,1.3,0.8,2.7,0.8,4c0,2.6-0.5,4.8-1.4,6.6
	c-1,1.8-2.2,3.3-3.8,4.5c-1.6,1.2-3.4,2.2-5.5,2.8c-2.1,0.7-4.3,1.2-6.5,1.6c-2.3,0.4-4.6,0.7-6.9,0.8s-4.5,0.3-6.6,0.4
	c-0.1,0.4-0.1,0.8-0.1,1.1v0.7c0,1.3,0.2,2.5,0.5,3.6c0.3,1.1,0.9,2.1,1.7,3c0.8,0.9,2,1.5,3.5,2c1.5,0.5,3.4,0.8,5.8,0.8
	c1.1,0,2.2-0.1,3.3-0.3c1.1-0.2,2.2-0.4,3.3-0.8c1-0.3,2-0.6,2.8-0.9c0.8-0.3,1.4-0.6,1.7-0.9l0.7,6.6c-1.1,0.6-2.9,1.3-5.4,2
	C484.5,498.8,481.6,499.1,478.3,499.1z"/>
<path id="Bitcoin" class="st0" d="M19.9,499.6c-3.4,0-6.8-0.1-10.3-0.4c-3.5-0.3-6.7-0.7-9.6-1.3L13.4,442c3.2-0.6,6.5-1,10-1.3
	c3.5-0.2,6.7-0.3,9.6-0.3c3.4,0,6.3,0.3,8.7,1c2.4,0.7,4.4,1.6,6,2.8c1.5,1.2,2.7,2.5,3.4,4.1c0.8,1.6,1.1,3.3,1.1,5
	c0,1.2-0.1,2.5-0.4,3.8c-0.3,1.3-0.8,2.7-1.5,4c-0.8,1.3-1.8,2.5-3.1,3.7c-1.3,1.2-3,2.2-5.2,3.2c2.5,1.1,4.4,2.6,5.5,4.5
	c1.2,1.9,1.8,4,1.8,6.4c0,2.7-0.5,5.2-1.6,7.7c-1.1,2.5-2.8,4.7-5.1,6.6c-2.4,1.9-5.4,3.4-9.2,4.6C29.8,499.1,25.3,499.6,19.9,499.6
	z M18.7,473.6l-3.6,15c0.9,0.2,2,0.3,3.4,0.4c1.4,0.1,2.6,0.1,3.8,0.1c1.7,0,3.3-0.1,5-0.4c1.7-0.3,3.1-0.7,4.4-1.4
	c1.3-0.7,2.4-1.6,3.2-2.8c0.8-1.2,1.3-2.7,1.3-4.5c0-0.8-0.2-1.6-0.5-2.3s-0.8-1.5-1.5-2.1c-0.7-0.6-1.6-1.1-2.6-1.5
	c-1.1-0.4-2.4-0.6-3.9-0.6H18.7z M21.2,463.8h8.2c3.4,0,5.9-0.7,7.5-2.2c1.7-1.4,2.5-3.2,2.5-5.2c0-1.1-0.2-2-0.7-2.7
	c-0.5-0.8-1.1-1.3-1.9-1.8c-0.8-0.4-1.7-0.8-2.7-1c-1-0.2-2-0.3-3.1-0.3c-1.2,0-2.4,0-3.8,0.1c-1.3,0.1-2.4,0.2-3,0.3L21.2,463.8z
	 M63.7,498.9H51.3L61.8,455h12.5L63.7,498.9z M69.8,449.7c-1.7,0-3.3-0.5-4.7-1.5c-1.4-1-2.1-2.6-2.1-4.7c0-1.2,0.2-2.3,0.7-3.3
	c0.5-1,1.1-1.9,1.9-2.7c0.8-0.8,1.7-1.3,2.7-1.8c1-0.4,2.1-0.7,3.3-0.7c1.7,0,3.3,0.5,4.7,1.5c1.4,1,2.1,2.6,2.1,4.7
	c0,1.2-0.2,2.3-0.7,3.3c-0.5,1-1.1,1.9-1.9,2.7s-1.7,1.3-2.7,1.8C72.1,449.4,71,449.7,69.8,449.7z M83.6,444.1l13-2L93.4,455h13.9
	l-2.5,10.2H91l-3.7,15.3c-0.3,1.3-0.5,2.5-0.6,3.6c-0.1,1.1,0.1,2.1,0.4,2.9c0.4,0.8,1,1.4,1.9,1.9c0.9,0.4,2.1,0.7,3.7,0.7
	c1.3,0,2.6-0.1,3.9-0.4c1.3-0.3,2.5-0.6,3.8-1l0.9,9.5c-1.7,0.6-3.5,1.1-5.5,1.6c-2,0.4-4.3,0.7-7,0.7c-3.9,0-6.9-0.6-9-1.7
	c-2.1-1.1-3.6-2.7-4.5-4.7c-0.9-2-1.3-4.2-1.2-6.8c0.1-2.6,0.5-5.3,1.2-8.1L83.6,444.1z M104.3,481.4c0-3.8,0.6-7.3,1.8-10.7
	s3-6.3,5.3-8.8c2.3-2.5,5.1-4.5,8.4-5.9c3.3-1.4,6.9-2.2,11-2.2c2.5,0,4.8,0.2,6.8,0.7c2,0.5,3.8,1.1,5.4,1.9l-4.3,9.7
	c-1.1-0.4-2.3-0.8-3.5-1.2c-1.2-0.4-2.7-0.5-4.4-0.5c-4.2,0-7.5,1.4-9.9,4.2c-2.4,2.8-3.6,6.6-3.6,11.5c0,2.8,0.6,5.1,1.8,6.9
	c1.2,1.8,3.5,2.6,6.8,2.6c1.6,0,3.2-0.2,4.7-0.5c1.5-0.3,2.9-0.8,4-1.3l0.9,9.9c-1.6,0.6-3.3,1.2-5.2,1.6c-1.9,0.5-4.2,0.7-6.8,0.7
	c-3.5,0-6.4-0.5-8.8-1.5c-2.4-1-4.4-2.3-6-4c-1.6-1.7-2.7-3.7-3.4-6C104.6,486.3,104.3,483.9,104.3,481.4z M156.4,500
	c-3,0-5.5-0.4-7.7-1.3c-2.2-0.9-4-2.1-5.4-3.8c-1.4-1.6-2.5-3.5-3.2-5.7c-0.7-2.2-1.1-4.6-1.1-7.3c0-3.3,0.5-6.7,1.6-10
	c1.1-3.3,2.7-6.3,4.8-9s4.7-4.9,7.8-6.5c3.1-1.7,6.6-2.5,10.6-2.5c2.9,0,5.5,0.4,7.7,1.3s4,2.1,5.5,3.8c1.4,1.6,2.5,3.5,3.2,5.7
	s1.1,4.6,1.1,7.3c0,3.3-0.5,6.7-1.6,10c-1.1,3.3-2.6,6.3-4.7,9c-2.1,2.7-4.7,4.9-7.8,6.5C164.1,499.2,160.5,500,156.4,500z
	 M162.6,464.3c-1.8,0-3.5,0.5-4.9,1.6c-1.4,1.1-2.6,2.4-3.5,4c-1,1.6-1.7,3.4-2.1,5.3c-0.5,1.9-0.7,3.7-0.7,5.5c0,2.8,0.4,5,1.3,6.5
	c0.9,1.5,2.5,2.3,4.9,2.3c1.8,0,3.5-0.5,4.9-1.6c1.4-1.1,2.6-2.4,3.5-4c1-1.6,1.7-3.4,2.1-5.3c0.5-1.9,0.7-3.7,0.7-5.5
	c0-2.8-0.4-5-1.3-6.5C166.6,465.1,165,464.3,162.6,464.3z M193.6,498.9h-12.4l10.5-43.9h12.5L193.6,498.9z M199.6,449.7
	c-1.7,0-3.3-0.5-4.7-1.5c-1.4-1-2.1-2.6-2.1-4.7c0-1.2,0.2-2.3,0.7-3.3c0.5-1,1.1-1.9,1.9-2.7c0.8-0.8,1.7-1.3,2.7-1.8
	c1-0.4,2.1-0.7,3.3-0.7c1.7,0,3.3,0.5,4.7,1.5c1.4,1,2.1,2.6,2.1,4.7c0,1.2-0.2,2.3-0.7,3.3c-0.5,1-1.1,1.9-1.9,2.7
	s-1.7,1.3-2.7,1.8C201.9,449.4,200.8,449.7,199.6,449.7z M211.6,457c1-0.3,2-0.6,3.1-1c1.1-0.4,2.4-0.7,3.9-1c1.4-0.3,3-0.6,4.8-0.8
	c1.8-0.2,3.8-0.3,6-0.3c6.6,0,11.1,1.9,13.6,5.7c2.5,3.8,2.9,9,1.3,15.5l-5.7,23.7H226l5.5-23.2c0.3-1.4,0.6-2.8,0.8-4.2
	c0.2-1.4,0.2-2.6,0-3.6c-0.2-1-0.7-1.9-1.6-2.5c-0.8-0.6-2.1-1-3.7-1c-1.6,0-3.3,0.2-5,0.5l-8.1,33.9h-12.5L211.6,457z"/>
</svg>
