<?xml version="1.0" encoding="UTF-8" standalone="no"?>
<svg
   xmlns:dc="http://purl.org/dc/elements/1.1/"
   xmlns:cc="http://creativecommons.org/ns#"
   xmlns:rdf="http://www.w3.org/1999/02/22-rdf-syntax-ns#"
   xmlns:svg="http://www.w3.org/2000/svg"
   xmlns="http://www.w3.org/2000/svg"
   xmlns:sodipodi="http://sodipodi.sourceforge.net/DTD/sodipodi-0.dtd"
   xmlns:inkscape="http://www.inkscape.org/namespaces/inkscape"
   version="1.1"
   id="Layer_1"
   x="0px"
   y="0px"
   viewBox="0 0 378.77216 379.33182"
   xml:space="preserve"
   sodipodi:docname="btcpround.svg"
   width="378.77216"
   height="379.33182"
   inkscape:version="0.92.5 (2060ec1f9f, 2020-04-08)"><metadata
   id="metadata12"><rdf:RDF><cc:Work
       rdf:about=""><dc:format>image/svg+xml</dc:format><dc:type
         rdf:resource="http://purl.org/dc/dcmitype/StillImage" /><dc:title /></cc:Work></rdf:RDF></metadata><defs
   id="defs10" /><sodipodi:namedview
   pagecolor="#ffffff"
   bordercolor="#666666"
   borderopacity="1"
   objecttolerance="10"
   gridtolerance="10"
   guidetolerance="10"
   inkscape:pageopacity="0"
   inkscape:pageshadow="2"
   inkscape:window-width="1981"
   inkscape:window-height="1219"
   id="namedview8"
   showgrid="false"
   fit-margin-top="0"
   fit-margin-left="0"
   fit-margin-right="0"
   fit-margin-bottom="0"
   inkscape:zoom="0.472"
   inkscape:cx="-873.35376"
   inkscape:cy="15.772682"
   inkscape:window-x="854"
   inkscape:window-y="105"
   inkscape:window-maximized="0"
   inkscape:current-layer="Layer_1" />
<style
   type="text/css"
   id="style2">
	.st0{fill:#272F5F;}
	.st1{fill:#7DA0D1;}
</style>
<circle
   style="fill:#ffffff;fill-opacity:1"
   id="path816"
   cx="191.53075"
   cy="188.0199"
   r="168.63875" /><path
   id="Fill-4"
   class="st0"
   d="m 373.10555,235.5659 c -25.3,101.6 -128.09999,163.4 -229.59999,138.1 -101.400004,-25.4 -163.200004,-128.3 -137.8000036,-229.9 C 30.905556,42.165902 133.70556,-19.634098 235.20556,5.6659021 336.60555,31.065902 398.40555,133.9659 373.10555,235.5659 Z m -116.2,-21.7 c -7.1,1.2 -10.59999,1.7 -17.79999,2.1 -3.3,0.2 -6.6,0.4 -9.9,0.6 9.5,6.5 15.5,15.5 12.4,27.9 -5.8,23.2 -36.1,20.1 -58.5,15.1 l -7.5,30.9 v 0 l -0.3,1.4 -9.8,40.2 25.2,6.3 10.5,-42.1 c 43.2,8.2 75.69999,4.9 89.39999,-34.3 8.5,-24.3 2.3,-43.1 -10.8,-54.7 -0.3,0.1 -0.6,0.3 -0.8,0.4 -6.3,2.2 -14.9,5 -22.1,6.2 z m -7.4,-51.1 c -7.09999,28.7 -51.29999,14.1 -65.59999,10.5 l 12.6,-50.7 c 14.4,3.6 60.39999,10.3 52.99999,40.2 m 9.6,-99.599998 -25.29999,-6.3 -10.1,40.6 c -6.7,-1.7 -13.5,-3.2 -20.3,-4.8 l 10.2,-40.9 -25.4,-6.3 -10.4,41.7 c -5.5,-1.3 -10.9,-2.5 -16.2,-3.8 l -34.9,-8.9 -6.7,27.099998 c 0,0 18.8,4.3 18.4,4.6 10.3,2.6 12.1,9.4 11.8,14.8 l -7.6,30.4 -6.6,26.5 -14.3,57.2 c -1.3,3.1 -4.4,7.8 -11.6,6 0.3,0.4 -18.400004,-4.6 -18.400004,-4.6 l -12.6,29 33.000004,8.2 c 6.1,1.5 12.1,3.2 18.1,4.7 l -10.5,42.2 25.3,6.3 10.4,-41.7 8.2,-30.5 13.9,-55.9 c 2.9,0.7 5.9,1.4 9.2,2.1 10.2,2.4 21,3.3 31.4,4 6.4,0.5 12.9,0.8 19.3,0.7 9.6,-0.1 19.39999,-1.9 28.49999,-5 7.6,-2.5 16.7,-5.8 22.3,-11.8 6.6,-7 9.9,-16.4 11.3,-25.8 4.6,-30.8 -18.8,-47.3 -50.8,-58.4 z"
   inkscape:connector-curvature="0"
   style="fill:#272f5f" />


</svg>